<svg width="23" height="24" viewBox="0 0 23 24" fill="none" xmlns="http://www.w3.org/2000/svg">
<g clip-path="url(#clip0_7_738)">
<path d="M8.62508 21.5832C9.15435 21.5832 9.58341 21.1541 9.58341 20.6248C9.58341 20.0956 9.15435 19.6665 8.62508 19.6665C8.09581 19.6665 7.66675 20.0956 7.66675 20.6248C7.66675 21.1541 8.09581 21.5832 8.62508 21.5832Z" stroke="#006633" stroke-width="2" stroke-linecap="round" stroke-linejoin="round"/>
<path d="M19.1666 21.5832C19.6959 21.5832 20.1249 21.1541 20.1249 20.6248C20.1249 20.0956 19.6959 19.6665 19.1666 19.6665C18.6373 19.6665 18.2083 20.0956 18.2083 20.6248C18.2083 21.1541 18.6373 21.5832 19.1666 21.5832Z" stroke="#006633" stroke-width="2" stroke-linecap="round" stroke-linejoin="round"/>
<path d="M0.958252 1.45801H4.79158L7.35992 14.2901C7.44755 14.7313 7.68758 15.1276 8.03798 15.4097C8.38839 15.6918 8.82684 15.8416 9.27658 15.833H18.5916C19.0413 15.8416 19.4798 15.6918 19.8302 15.4097C20.1806 15.1276 20.4206 14.7313 20.5082 14.2901L22.0416 6.24968H5.74992" stroke="#006633" stroke-width="2" stroke-linecap="round" stroke-linejoin="round"/>
</g>
<defs>
<clipPath id="clip0_7_738">
<rect width="23" height="23" fill="white" transform="translate(0 0.5)"/>
</clipPath>
</defs>
</svg>
