<svg width="23" height="22" viewBox="0 0 23 22" fill="none" xmlns="http://www.w3.org/2000/svg">
<path d="M1.64286 20.57H7.70829V13.3101C7.70829 12.9831 7.83588 12.709 8.09107 12.4879C8.34517 12.2658 8.66005 12.1547 9.03571 12.1547H13.9643C14.34 12.1547 14.6554 12.2658 14.9106 12.4879C15.1647 12.709 15.2917 12.9831 15.2917 13.3101V20.57H21.3571V8.14079C21.3571 7.99398 21.3205 7.86051 21.2471 7.7404C21.1737 7.62028 21.0735 7.51541 20.9464 7.4258L12.1013 1.62301C11.9326 1.49527 11.7322 1.43139 11.5 1.43139C11.2678 1.43139 11.0679 1.49527 10.9004 1.62301L2.05357 7.4258C1.92762 7.51732 1.8274 7.62219 1.75293 7.7404C1.67845 7.85861 1.64176 7.99207 1.64286 8.14079V20.57ZM0 20.57V8.14079C0 7.77472 0.0941904 7.42819 0.282571 7.1012C0.470952 6.77422 0.730524 6.50491 1.06129 6.29327L9.90807 0.461879C10.3714 0.15396 10.9004 0 11.4951 0C12.0898 0 12.6221 0.15396 13.0919 0.461879L21.9387 6.29184C22.2706 6.50348 22.5301 6.77326 22.7174 7.1012C22.9058 7.42819 23 7.77472 23 8.14079V20.57C23 20.9533 22.8363 21.2874 22.5088 21.5724C22.1813 21.8575 21.7974 22 21.3571 22H14.9763C14.5995 22 14.2841 21.8894 14.03 21.6682C13.7759 21.4461 13.6489 21.1716 13.6489 20.8446V13.5861H9.35114V20.8446C9.35114 21.1725 9.2241 21.4471 8.97 21.6682C8.71591 21.8894 8.40102 22 8.02536 22H1.64286C1.20257 22 0.81869 21.8575 0.491214 21.5724C0.163738 21.2874 0 20.9533 0 20.57Z" fill="#006633"/>
</svg>
