<svg width="23" height="24" viewBox="0 0 23 24" fill="none" xmlns="http://www.w3.org/2000/svg">
<path fill-rule="evenodd" clip-rule="evenodd" d="M16.4738 15.3332L22.6605 21.5201C22.878 21.7377 23.0001 22.0328 23 22.3404C22.9999 22.6481 22.8776 22.9431 22.66 23.1605C22.4424 23.378 22.1473 23.5001 21.8397 23.5C21.532 23.4999 21.237 23.3776 21.0196 23.16L14.8329 16.9731C12.9834 18.4056 10.6577 19.0797 8.32891 18.8583C6.0001 18.6369 3.84309 17.5366 2.2967 15.7813C0.750313 14.0259 -0.0693016 11.7474 0.00459556 9.40919C0.0784927 7.07098 1.04035 4.84875 2.6945 3.19456C4.34864 1.54038 6.57082 0.578495 8.90897 0.504596C11.2471 0.430697 13.5256 1.25033 15.2809 2.79676C17.0362 4.34319 18.1365 6.50025 18.3579 8.82912C18.5792 11.158 17.9051 13.4837 16.4727 15.3332M9.20043 16.5994C11.0303 16.5994 12.7853 15.8724 14.0792 14.5784C15.3732 13.2845 16.1001 11.5295 16.1001 9.69951C16.1001 7.86955 15.3732 6.11455 14.0792 4.82058C12.7853 3.5266 11.0303 2.79966 9.20043 2.79966C7.37052 2.79966 5.61556 3.5266 4.32162 4.82058C3.02768 6.11455 2.30075 7.86955 2.30075 9.69951C2.30075 11.5295 3.02768 13.2845 4.32162 14.5784C5.61556 15.8724 7.37052 16.5994 9.20043 16.5994Z" fill="#006633"/>
</svg>
